<svg width="81" height="71" viewBox="0 0 81 71" fill="none" xmlns="http://www.w3.org/2000/svg">
<path d="M40.6244 70.8543C28.9053 70.8543 17.1862 70.8543 5.46706 70.8543C4.8946 70.8543 4.31473 70.8543 3.7398 70.795C0.805909 70.5211 -0.373568 68.5447 0.877467 65.8723C1.96318 63.5652 3.14759 61.3173 4.29746 59.0348C9.72601 48.2879 15.1546 37.5427 20.5831 26.7991C20.7509 26.4709 20.9261 26.1427 21.121 25.8293C22.488 23.6382 24.7088 23.3297 26.4583 25.2199C27.6921 26.5425 28.7358 28.0279 29.8363 29.4615C35.4294 36.7704 41.0224 44.0824 46.6155 51.3978C49.0584 54.5809 52.1354 54.7537 55.0051 51.8913C56.4288 50.47 57.8205 49.0117 59.2616 47.6028C61.8599 45.0612 64.8086 45.2142 66.9306 48.1777C71.1896 54.1244 75.3424 60.1501 79.515 66.1561C79.8411 66.6273 80.0909 67.1469 80.2553 67.6958C80.6599 69.0752 80.0875 70.1856 78.6884 70.5532C77.8111 70.7632 76.9105 70.8603 76.0087 70.8419C64.2205 70.8617 52.4257 70.8658 40.6244 70.8543Z" fill="#D4D2E3"/>
<path d="M66.9059 11.9668C66.9029 14.2607 66.2189 16.502 64.9406 18.4066C63.6622 20.3112 61.8471 21.7934 59.7254 22.6651C57.6037 23.5369 55.2708 23.7591 53.0227 23.3035C50.7746 22.8478 48.7123 21.7349 47.0975 20.1059C45.4826 18.4768 44.3878 16.4049 43.9519 14.1528C43.516 11.9008 43.7586 9.57 44.6489 7.45599C45.5392 5.34199 47.0372 3.53995 48.953 2.27834C50.8687 1.01673 53.1159 0.352361 55.4097 0.369463C58.4641 0.408278 61.381 1.64578 63.5315 3.81519C65.682 5.98461 66.8939 8.91219 66.9059 11.9668Z" fill="#D4D2E3"/>
</svg>
